<mxfile host="app.diagrams.net" modified="2020-10-02T15:51:20.762Z" agent="5.0 (Windows NT 10.0; Win64; x64) AppleWebKit/537.36 (KHTML, like Gecko) Chrome/85.0.4183.121 Safari/537.36" etag="BL_Vno0qPXJwqlh7bcSk" version="13.7.7" type="github">
  <diagram name="Page-1" id="03018318-947c-dd8e-b7a3-06fadd420f32">
    <mxGraphModel dx="4580" dy="4350" grid="1" gridSize="10" guides="1" tooltips="1" connect="1" arrows="1" fold="1" page="1" pageScale="1" pageWidth="1100" pageHeight="850" background="#ffffff" math="0" shadow="0">
      <root>
        <mxCell id="0" />
        <mxCell id="1" parent="0" />
        <mxCell id="S1MMpKQBzSGMyYDsXHax-21" value="" style="verticalLabelPosition=bottom;shadow=0;dashed=0;align=center;html=1;verticalAlign=top;strokeWidth=1;shape=mxgraph.mockup.misc.shoppingCart;strokeColor=#F2F2F2;" vertex="1" parent="1">
          <mxGeometry x="1000" y="-1680" width="50" height="50" as="geometry" />
        </mxCell>
        <mxCell id="S1MMpKQBzSGMyYDsXHax-38" value="" style="strokeWidth=1;shadow=0;dashed=0;align=center;html=1;shape=mxgraph.mockup.containers.browserWindow;rSize=0;strokeColor2=#008cff;strokeColor3=#c4c4c4;mainText=,;recursiveResize=0;labelBackgroundColor=#000000;fontSize=12;" vertex="1" parent="1">
          <mxGeometry x="-940" y="-2535" width="1910" height="1260" as="geometry" />
        </mxCell>
        <mxCell id="S1MMpKQBzSGMyYDsXHax-39" value="Page 1" style="strokeWidth=1;shadow=0;dashed=0;align=center;html=1;shape=mxgraph.mockup.containers.anchor;fontSize=17;fontColor=#666666;align=left;" vertex="1" parent="S1MMpKQBzSGMyYDsXHax-38">
          <mxGeometry x="60" y="12" width="110" height="26" as="geometry" />
        </mxCell>
        <mxCell id="S1MMpKQBzSGMyYDsXHax-40" value="https://www.draw.io" style="strokeWidth=1;shadow=0;dashed=0;align=center;html=1;shape=mxgraph.mockup.containers.anchor;rSize=0;fontSize=17;fontColor=#666666;align=left;" vertex="1" parent="S1MMpKQBzSGMyYDsXHax-38">
          <mxGeometry x="130" y="60" width="250" height="26" as="geometry" />
        </mxCell>
        <mxCell id="S1MMpKQBzSGMyYDsXHax-43" value="Pagina Inicial" style="rounded=1;whiteSpace=wrap;html=1;shadow=0;labelBackgroundColor=#FFFFFF;strokeWidth=1;fontSize=35;align=left;" vertex="1" parent="S1MMpKQBzSGMyYDsXHax-38">
          <mxGeometry x="90" y="140" width="250" height="50" as="geometry" />
        </mxCell>
        <mxCell id="S1MMpKQBzSGMyYDsXHax-44" value="Hoje" style="rounded=1;whiteSpace=wrap;html=1;shadow=0;labelBackgroundColor=#FFFFFF;strokeColor=#F2F2F2;strokeWidth=1;gradientColor=none;fontSize=35;fontColor=#000000;align=left;labelBorderColor=none;" vertex="1" parent="S1MMpKQBzSGMyYDsXHax-38">
          <mxGeometry x="350" y="133.5" width="100" height="66.5" as="geometry" />
        </mxCell>
        <mxCell id="S1MMpKQBzSGMyYDsXHax-45" value="Seguindo" style="rounded=1;whiteSpace=wrap;html=1;shadow=0;labelBackgroundColor=#FFFFFF;strokeWidth=1;fontSize=35;align=left;" vertex="1" parent="S1MMpKQBzSGMyYDsXHax-38">
          <mxGeometry x="460" y="130" width="170" height="70" as="geometry" />
        </mxCell>
        <mxCell id="S1MMpKQBzSGMyYDsXHax-46" value="" style="verticalLabelPosition=bottom;shadow=0;dashed=0;align=center;html=1;verticalAlign=top;strokeWidth=1;shape=mxgraph.mockup.containers.userMale;strokeColor2=#008cff;labelBackgroundColor=#FFFFFF;fontSize=12;" vertex="1" parent="S1MMpKQBzSGMyYDsXHax-38">
          <mxGeometry x="1815" y="125.6" width="70" height="70" as="geometry" />
        </mxCell>
        <mxCell id="S1MMpKQBzSGMyYDsXHax-47" value="Search" style="strokeWidth=1;shadow=0;dashed=0;align=center;html=1;shape=mxgraph.mockup.forms.PesquisarBox;strokeColor=#666666;mainText=;strokeColor2=#008cff;fontColor=#333333;fontSize=17;align=left;spacingLeft=3;labelBackgroundColor=#FFFFFF;fillColor=#f5f5f5;" vertex="1" parent="S1MMpKQBzSGMyYDsXHax-38">
          <mxGeometry x="650" y="130" width="740" height="80" as="geometry" />
        </mxCell>
        <mxCell id="S1MMpKQBzSGMyYDsXHax-48" value="" style="dashed=0;outlineConnect=0;html=1;align=center;labelPosition=center;verticalLabelPosition=bottom;verticalAlign=top;shape=mxgraph.weblogos.pinterest;fillColor=#BD081C;strokeColor=none;shadow=0;labelBackgroundColor=#FFFFFF;fontSize=12;fontColor=#000000;" vertex="1" parent="S1MMpKQBzSGMyYDsXHax-38">
          <mxGeometry x="10" y="125.60000000000002" width="76.80000000000001" height="74.4" as="geometry" />
        </mxCell>
        <mxCell id="S1MMpKQBzSGMyYDsXHax-49" value="" style="dashed=0;outlineConnect=0;html=1;align=center;labelPosition=center;verticalLabelPosition=bottom;verticalAlign=top;shape=mxgraph.weblogos.google;shadow=0;labelBackgroundColor=#FFFFFF;strokeColor=#F2F2F2;strokeWidth=1;gradientColor=none;fontSize=12;fontColor=#000000;" vertex="1" parent="S1MMpKQBzSGMyYDsXHax-38">
          <mxGeometry x="20" y="285" width="330" height="220" as="geometry" />
        </mxCell>
        <mxCell id="S1MMpKQBzSGMyYDsXHax-50" value="" style="dashed=0;outlineConnect=0;html=1;align=center;labelPosition=center;verticalLabelPosition=bottom;verticalAlign=top;shape=mxgraph.weblogos.stackoverflow;shadow=0;labelBackgroundColor=#FFFFFF;strokeColor=#F2F2F2;strokeWidth=1;gradientColor=none;fontSize=12;fontColor=#000000;" vertex="1" parent="S1MMpKQBzSGMyYDsXHax-38">
          <mxGeometry x="40" y="545" width="290" height="340" as="geometry" />
        </mxCell>
        <mxCell id="S1MMpKQBzSGMyYDsXHax-51" value="" style="dashed=0;outlineConnect=0;html=1;align=center;labelPosition=center;verticalLabelPosition=bottom;verticalAlign=top;shape=mxgraph.weblogos.reddit;fillColor=#F3F8FC;gradientColor=#B4D2F0;shadow=0;labelBackgroundColor=#FFFFFF;strokeColor=#F2F2F2;strokeWidth=1;fontSize=12;fontColor=#000000;" vertex="1" parent="S1MMpKQBzSGMyYDsXHax-38">
          <mxGeometry x="460" y="565" width="360" height="340" as="geometry" />
        </mxCell>
        <mxCell id="S1MMpKQBzSGMyYDsXHax-52" value="" style="dashed=0;outlineConnect=0;html=1;align=center;labelPosition=center;verticalLabelPosition=bottom;verticalAlign=top;shape=mxgraph.weblogos.paypal;shadow=0;labelBackgroundColor=#FFFFFF;strokeColor=#F2F2F2;strokeWidth=1;gradientColor=none;fontSize=12;fontColor=#000000;" vertex="1" parent="S1MMpKQBzSGMyYDsXHax-38">
          <mxGeometry x="460" y="310" width="360" height="255" as="geometry" />
        </mxCell>
        <mxCell id="S1MMpKQBzSGMyYDsXHax-53" value="" style="dashed=0;outlineConnect=0;html=1;align=center;labelPosition=center;verticalLabelPosition=bottom;verticalAlign=top;shape=mxgraph.weblogos.instagram;fillColor=#6FC0E4;gradientColor=#1E305B;shadow=0;labelBackgroundColor=#FFFFFF;strokeColor=#F2F2F2;strokeWidth=1;fontSize=12;fontColor=#000000;" vertex="1" parent="S1MMpKQBzSGMyYDsXHax-38">
          <mxGeometry x="945" y="615" width="300" height="325" as="geometry" />
        </mxCell>
        <mxCell id="S1MMpKQBzSGMyYDsXHax-55" value="" style="dashed=0;outlineConnect=0;html=1;align=center;labelPosition=center;verticalLabelPosition=bottom;verticalAlign=top;shape=mxgraph.weblogos.youtube;fillColor=#FF2626;gradientColor=#B5171F;shadow=0;labelBackgroundColor=#FFFFFF;strokeColor=#F2F2F2;strokeWidth=1;fontSize=12;fontColor=#000000;" vertex="1" parent="S1MMpKQBzSGMyYDsXHax-38">
          <mxGeometry x="80" y="1055" width="570" height="160" as="geometry" />
        </mxCell>
        <mxCell id="S1MMpKQBzSGMyYDsXHax-56" value="" style="dashed=0;outlineConnect=0;html=1;align=center;labelPosition=center;verticalLabelPosition=bottom;verticalAlign=top;shape=mxgraph.weblogos.soundcloud;fillColor=#FE4600;strokeColor=none;shadow=0;labelBackgroundColor=#FFFFFF;fontSize=12;fontColor=#000000;" vertex="1" parent="S1MMpKQBzSGMyYDsXHax-38">
          <mxGeometry x="910" y="1055" width="370" height="160" as="geometry" />
        </mxCell>
        <mxCell id="S1MMpKQBzSGMyYDsXHax-57" value="" style="dashed=0;outlineConnect=0;html=1;align=center;labelPosition=center;verticalLabelPosition=bottom;verticalAlign=top;shape=mxgraph.weblogos.skype;fillColor=#2AACE2;strokeColor=none;shadow=0;labelBackgroundColor=#FFFFFF;fontSize=12;fontColor=#000000;" vertex="1" parent="S1MMpKQBzSGMyYDsXHax-38">
          <mxGeometry x="1430" y="940" width="420" height="285" as="geometry" />
        </mxCell>
        <mxCell id="S1MMpKQBzSGMyYDsXHax-58" value="" style="dashed=0;outlineConnect=0;html=1;align=center;labelPosition=center;verticalLabelPosition=bottom;verticalAlign=top;shape=mxgraph.weblogos.github;shadow=0;labelBackgroundColor=#FFFFFF;strokeColor=#F2F2F2;strokeWidth=1;gradientColor=none;fontSize=12;fontColor=#000000;" vertex="1" parent="S1MMpKQBzSGMyYDsXHax-38">
          <mxGeometry x="1465" y="605" width="350" height="315" as="geometry" />
        </mxCell>
        <mxCell id="S1MMpKQBzSGMyYDsXHax-59" value="" style="dashed=0;outlineConnect=0;html=1;align=center;labelPosition=center;verticalLabelPosition=bottom;verticalAlign=top;shape=mxgraph.weblogos.google_drive;shadow=0;labelBackgroundColor=#FFFFFF;strokeColor=#F2F2F2;strokeWidth=1;gradientColor=none;fontSize=12;fontColor=#000000;" vertex="1" parent="S1MMpKQBzSGMyYDsXHax-38">
          <mxGeometry x="1515" y="315" width="300" height="240" as="geometry" />
        </mxCell>
        <mxCell id="S1MMpKQBzSGMyYDsXHax-60" value="" style="dashed=0;outlineConnect=0;html=1;align=center;labelPosition=center;verticalLabelPosition=bottom;verticalAlign=top;shape=mxgraph.weblogos.amazon;shadow=0;labelBackgroundColor=#FFFFFF;strokeColor=#F2F2F2;strokeWidth=1;gradientColor=none;fontSize=12;fontColor=#000000;" vertex="1" parent="S1MMpKQBzSGMyYDsXHax-38">
          <mxGeometry x="940" y="275" width="390" height="270" as="geometry" />
        </mxCell>
      </root>
    </mxGraphModel>
  </diagram>
</mxfile>
